# xmcd
#
# Track frame offsets: 
#        150
#        24160
#        53484
#        68153
#        86262
#        101173
#        126136
#        145133
#        164493
#        184157
#        205739
#        221918
#        246484
#        261674
#        278188
#        296256
#
# Disc length: 4129 seconds
#
# Revision: 4
# Processed by: cddbd v1.5.2PL0 Copyright (c) Steve Scherf et al.
# Submitted via: ExactAudioCopy v0.95a5
#
DISCID=f3101f10
DTITLE=Various Artist - He Sings The Blues - CD-1
DYEAR=2005
DGENRE=Blues
TTITLE0=The First Time Ever I Saw Your Face
TTITLE1=In the Wee Small Hours Of the Morning
TTITLE2=That's Where It's It
TTITLE3=Sorry Seems To Be The Hardest Word
TTITLE4=Ain't No Sunshine
TTITLE5=I Don't Mean A Thing (If It Ain't Got That Swing)
TTITLE6=Arms Of A Woman
TTITLE7=She's A Mystery To Me
TTITLE8=We Gotta Serve Somebody
TTITLE9=Rainin' In My Heart
TTITLE10=Suddenly
TTITLE11=Me and Mrs. Jones
TTITLE12=California Dreaming
TTITLE13=Human Nature
TTITLE14=Eyes Of Blue
TTITLE15=Smoke Gets In Your Eyes
EXTD=
EXTT0=
EXTT1=
EXTT2=
EXTT3=
EXTT4=
EXTT5=
EXTT6=
EXTT7=
EXTT8=
EXTT9=
EXTT10=
EXTT11=
EXTT12=
EXTT13=
EXTT14=
EXTT15=
PLAYORDER=
